<svg width="356" height="354" viewBox="0 0 356 354" fill="none" xmlns="http://www.w3.org/2000/svg">
<path d="M159.325 32.2166C170.406 25.1304 184.594 25.1304 195.675 32.2166C202.765 36.7509 211.26 38.5567 219.582 37.2982C232.587 35.3315 245.549 41.1025 252.789 52.0829C257.422 59.109 264.448 64.2141 272.562 66.4491C285.242 69.9419 294.736 80.4861 296.885 93.462C298.259 101.765 302.602 109.287 309.105 114.629C319.269 122.977 323.653 136.471 320.338 149.199C318.217 157.344 319.124 165.981 322.893 173.507C328.782 185.267 327.299 199.378 319.093 209.657C313.843 216.234 311.159 224.494 311.54 232.902C312.137 246.041 305.043 258.329 293.366 264.381C285.894 268.255 280.082 274.709 277.011 282.545C272.212 294.791 260.733 303.13 247.604 303.911C239.203 304.41 231.268 307.942 225.276 313.852C215.911 323.087 202.032 326.037 189.721 321.409C181.843 318.448 173.157 318.448 165.279 321.409C152.968 326.037 139.089 323.087 129.724 313.852C123.732 307.942 115.797 304.41 107.396 303.911C94.2666 303.13 82.7878 294.791 77.9887 282.545C74.9178 274.709 69.1062 268.255 61.6342 264.381C49.9573 258.329 42.863 246.041 43.4595 232.902C43.8413 224.494 41.1574 216.234 35.9067 209.657C27.7012 199.378 26.2181 185.267 32.1072 173.507C35.8756 165.981 36.7834 157.344 34.662 149.199C31.3467 136.471 35.7312 122.977 45.8946 114.629C52.398 109.287 56.7407 101.765 58.1153 93.462C60.2635 80.4861 69.7575 69.9419 82.4378 66.4491C90.5518 64.2141 97.5783 59.109 102.211 52.0828C109.451 41.1025 122.413 35.3315 135.418 37.2982C143.74 38.5567 152.235 36.7509 159.325 32.2166Z" stroke="#E4E4E4"/>
<path d="M285.447 238.499L283.765 240.364L269.096 235.086L268.96 235.237L275.716 249.287L274.033 251.152L261.128 239.51L262.447 238.048L272.252 246.893L272.365 246.767L266.198 233.889L267.472 232.478L280.915 237.29L281.028 237.164L271.223 228.319L272.542 226.857L285.447 238.499Z" fill="#E4E4E4"/>
<path d="M266.831 258.279L264.907 259.73L256.174 256.153L256.011 256.276L257.046 265.656L255.122 267.107L253.985 255.168L249.674 249.448L251.354 248.181L255.666 253.901L266.831 258.279Z" fill="#E4E4E4"/>
<path d="M230.516 261.796L237.166 277.853L231.74 280.1C230.48 280.622 229.356 280.821 228.368 280.697C227.377 280.581 226.529 280.219 225.824 279.611C225.119 279.002 224.571 278.225 224.179 277.279C223.787 276.333 223.625 275.393 223.691 274.459C223.752 273.528 224.087 272.666 224.697 271.875C225.308 271.089 226.238 270.438 227.488 269.92L231.377 268.31L232.091 270.035L228.265 271.619C227.402 271.976 226.771 272.412 226.372 272.927C225.973 273.441 225.76 274 225.735 274.605C225.707 275.217 225.826 275.844 226.092 276.487C226.358 277.13 226.717 277.655 227.167 278.063C227.612 278.472 228.158 278.711 228.805 278.78C229.455 278.854 230.216 278.711 231.089 278.349L234.507 276.933L228.572 262.601L230.516 261.796Z" fill="#E4E4E4"/>
<path d="M212.389 269.016L216.321 285.945L210.601 287.274C209.278 287.581 208.14 287.607 207.186 287.353C206.234 287.103 205.463 286.635 204.873 285.947C204.284 285.259 203.873 284.417 203.641 283.419C203.41 282.422 203.408 281.49 203.637 280.623C203.866 279.757 204.35 279.006 205.091 278.369C205.833 277.738 206.86 277.27 208.171 276.965L212.801 275.89L213.231 277.742L208.668 278.802C207.764 279.012 207.067 279.313 206.577 279.705C206.082 280.099 205.767 280.567 205.632 281.11C205.492 281.659 205.501 282.273 205.658 282.951C205.816 283.628 206.08 284.191 206.452 284.64C206.823 285.088 207.319 285.385 207.939 285.531C208.561 285.683 209.33 285.653 210.244 285.44L213.848 284.603L210.339 269.492L212.389 269.016ZM206.186 278.472L200.254 271.834L202.635 271.281L208.501 277.934L206.186 278.472Z" fill="#E4E4E4"/>
<path d="M179.137 282.693C179.045 280.862 179.296 279.263 179.891 277.897C180.485 276.53 181.34 275.456 182.457 274.675C183.573 273.894 184.872 273.466 186.352 273.392C187.833 273.318 189.167 273.614 190.356 274.279C191.545 274.945 192.504 275.928 193.232 277.228C193.959 278.528 194.369 280.094 194.461 281.925C194.553 283.756 194.302 285.354 193.707 286.721C193.113 288.088 192.258 289.161 191.141 289.942C190.025 290.723 188.726 291.151 187.246 291.225C185.765 291.299 184.431 291.004 183.242 290.338C182.053 289.673 181.094 288.69 180.366 287.389C179.638 286.089 179.229 284.523 179.137 282.693ZM181.171 282.591C181.246 284.094 181.561 285.35 182.116 286.359C182.665 287.368 183.38 288.116 184.259 288.605C185.134 289.094 186.096 289.312 187.147 289.259C188.198 289.206 189.137 288.893 189.964 288.319C190.785 287.745 191.421 286.929 191.872 285.87C192.317 284.811 192.502 283.53 192.427 282.027C192.352 280.524 192.039 279.268 191.49 278.259C190.936 277.25 190.221 276.501 189.347 276.012C188.467 275.524 187.502 275.306 186.451 275.359C185.4 275.411 184.464 275.724 183.643 276.298C182.816 276.872 182.18 277.688 181.735 278.747C181.284 279.807 181.096 281.088 181.171 282.591Z" fill="#E4E4E4"/>
<path d="M162.258 290.396L160.167 290.155L161.589 277.813C161.716 276.711 162.026 275.799 162.52 275.075C163.013 274.352 163.651 273.833 164.433 273.519C165.215 273.205 166.107 273.105 167.107 273.221C168.051 273.329 168.872 273.598 169.569 274.025C170.265 274.459 170.787 275.02 171.134 275.709C171.482 276.399 171.605 277.184 171.504 278.067L169.446 277.83C169.503 277.341 169.431 276.9 169.232 276.507C169.026 276.118 168.721 275.798 168.317 275.547C167.913 275.295 167.439 275.138 166.894 275.075C166.292 275.006 165.766 275.074 165.315 275.278C164.865 275.482 164.502 275.816 164.226 276.28C163.944 276.749 163.762 277.34 163.68 278.054L162.258 290.396Z" fill="#E4E4E4"/>
<path d="M154.315 271.805L149.726 288.569L139.609 285.799L140.102 283.999L148.189 286.212L149.74 280.548L142.176 278.478L142.669 276.677L150.232 278.747L151.792 273.05L143.574 270.801L144.067 269L154.315 271.805Z" fill="#E4E4E4"/>
<path d="M118.781 271.682L120.687 272.574C120.543 273.175 120.515 273.749 120.603 274.296C120.686 274.84 120.861 275.347 121.129 275.816C121.389 276.288 121.726 276.708 122.141 277.077C122.556 277.445 123.024 277.752 123.547 277.997C124.5 278.443 125.476 278.606 126.475 278.486C127.469 278.364 128.414 277.941 129.309 277.216C130.198 276.489 130.962 275.444 131.6 274.081C132.237 272.718 132.55 271.462 132.538 270.314C132.521 269.162 132.24 268.166 131.697 267.325C131.149 266.481 130.398 265.836 129.445 265.39C128.922 265.146 128.386 264.983 127.837 264.901C127.288 264.819 126.751 264.827 126.224 264.924C125.69 265.024 125.188 265.217 124.717 265.502C124.239 265.791 123.816 266.18 123.449 266.67L121.543 265.779C122.063 265.041 122.661 264.443 123.337 263.985C124.014 263.527 124.738 263.207 125.511 263.025C126.28 262.848 127.07 262.809 127.88 262.906C128.685 263.002 129.485 263.235 130.279 263.607C131.622 264.235 132.662 265.122 133.401 266.267C134.139 267.412 134.525 268.729 134.559 270.219C134.593 271.709 134.221 273.284 133.445 274.944C132.668 276.605 131.697 277.899 130.531 278.828C129.366 279.757 128.107 280.305 126.755 280.472C125.403 280.639 124.055 280.408 122.713 279.78C121.918 279.408 121.227 278.944 120.638 278.388C120.043 277.829 119.569 277.194 119.214 276.485C118.856 275.78 118.636 275.022 118.555 274.209C118.47 273.401 118.546 272.559 118.781 271.682Z" fill="#E4E4E4"/>
<path d="M109.132 270.615L108.061 272.145L97.3815 264.671L98.4519 263.142L102.93 266.275L111.824 253.565L113.548 254.772L104.654 267.482L109.132 270.615Z" fill="#E4E4E4"/>
<path d="M85.1277 248.241C84.5953 248.924 84.4193 249.689 84.5999 250.536C84.7804 251.383 85.2447 252.177 85.9927 252.917C86.5397 253.458 87.1058 253.843 87.6911 254.072C88.2724 254.297 88.8309 254.368 89.3665 254.285C89.8981 254.198 90.3589 253.958 90.7489 253.564C91.0751 253.234 91.2773 252.873 91.3552 252.48C91.4251 252.088 91.413 251.69 91.3188 251.286C91.2207 250.887 91.0846 250.501 90.9106 250.13C90.7326 249.763 90.5588 249.436 90.3893 249.149L89.4687 247.57C89.2306 247.167 88.988 246.696 88.7411 246.157C88.4902 245.614 88.3111 245.035 88.2038 244.42C88.0885 243.804 88.1091 243.18 88.2658 242.547C88.4224 241.914 88.7873 241.308 89.3603 240.729C90.0208 240.062 90.7926 239.631 91.6757 239.439C92.5548 239.242 93.4853 239.315 94.4673 239.658C95.4452 239.997 96.4088 240.636 97.3579 241.575C98.2427 242.45 98.8676 243.351 99.2326 244.277C99.5935 245.199 99.7063 246.099 99.571 246.976C99.4316 247.848 99.0518 248.647 98.4316 249.37L96.8872 247.842C97.3086 247.336 97.5337 246.794 97.5627 246.218C97.5836 245.642 97.4565 245.071 97.1815 244.504C96.8984 243.937 96.5116 243.411 96.0209 242.926C95.4498 242.361 94.8455 241.946 94.208 241.681C93.5665 241.421 92.948 241.326 92.3522 241.397C91.7526 241.473 91.2299 241.735 90.7842 242.186C90.3784 242.596 90.1627 243.043 90.1373 243.527C90.1119 244.012 90.2066 244.519 90.4214 245.05C90.6363 245.581 90.9012 246.122 91.2162 246.672L92.3067 248.611C92.9974 249.843 93.3695 250.995 93.4233 252.067C93.477 253.139 93.092 254.091 92.2683 254.924C91.5839 255.615 90.8 256.034 89.9167 256.178C89.0253 256.323 88.1207 256.224 87.2027 255.881C86.2767 255.538 85.4196 254.976 84.6314 254.196C83.8351 253.408 83.2685 252.565 82.9316 251.667C82.5908 250.773 82.4822 249.901 82.6057 249.052C82.7251 248.2 83.0832 247.452 83.6799 246.808L85.1277 248.241Z" fill="#E4E4E4"/>
<path d="M69.9347 114.602L71.6173 112.737L86.2858 118.015L86.4222 117.864L79.6664 103.815L81.349 101.949L94.254 113.591L92.9352 115.053L83.1304 106.208L83.0167 106.334L89.1835 119.212L87.9102 120.623L74.4674 115.811L74.3537 115.937L84.1585 124.782L82.8397 126.244L69.9347 114.602Z" fill="#E4E4E4"/>
<path d="M88.5507 94.822L90.4752 93.3711L99.2081 96.9477L99.3707 96.8251L98.3359 87.4451L100.26 85.9942L101.397 97.9335L105.708 103.653L104.028 104.92L99.7161 99.2004L88.5507 94.822Z" fill="#E4E4E4"/>
<path d="M124.866 91.3056L118.216 75.248L123.642 73.0011C124.901 72.4794 126.025 72.2803 127.013 72.4039C128.005 72.5201 128.853 72.8823 129.558 73.4905C130.263 74.0987 130.811 74.8758 131.203 75.8219C131.595 76.768 131.757 77.708 131.691 78.6418C131.63 79.5734 131.294 80.4348 130.685 81.226C130.074 82.0119 129.143 82.6636 127.894 83.1809L124.005 84.7914L123.291 83.0665L127.117 81.482C127.98 81.1248 128.61 80.689 129.01 80.1746C129.409 79.6602 129.621 79.1008 129.647 78.4963C129.675 77.8845 129.556 77.2571 129.29 76.6142C129.023 75.9713 128.665 75.4461 128.215 75.0386C127.77 74.629 127.223 74.3897 126.576 74.3209C125.927 74.2468 125.166 74.3905 124.293 74.752L120.875 76.1677L126.81 90.5004L124.866 91.3056Z" fill="#E4E4E4"/>
<path d="M142.993 84.0851L139.061 67.1556L144.781 65.8271C146.104 65.5199 147.242 65.4937 148.196 65.7485C149.148 65.9977 149.919 66.4663 150.509 67.1541C151.098 67.842 151.509 68.6846 151.74 69.6821C151.972 70.6796 151.974 71.6114 151.745 72.4777C151.516 73.3439 151.032 74.0954 150.291 74.7321C149.549 75.3633 148.522 75.8312 147.21 76.1358L142.581 77.2109L142.151 75.3593L146.714 74.2995C147.618 74.0896 148.315 73.7884 148.804 73.3958C149.3 73.0021 149.615 72.5339 149.75 71.9913C149.89 71.442 149.881 70.8284 149.723 70.1505C149.566 69.4727 149.302 68.9097 148.93 68.4616C148.559 68.0135 148.063 67.7163 147.443 67.57C146.821 67.4182 146.052 67.4486 145.138 67.661L141.534 68.4981L145.043 83.609L142.993 84.0851ZM149.195 74.6293L155.128 81.2667L152.747 81.8196L146.881 75.1669L149.195 74.6293Z" fill="#E4E4E4"/>
<path d="M176.245 70.4084C176.337 72.2391 176.085 73.8378 175.491 75.2045C174.897 76.5711 174.042 77.6449 172.925 78.426C171.809 79.207 170.51 79.6346 169.03 79.7088C167.549 79.783 166.215 79.4873 165.026 78.8218C163.837 78.1563 162.878 77.1733 162.15 75.873C161.422 74.5726 161.013 73.007 160.921 71.1762C160.829 69.3455 161.08 67.7468 161.675 66.3801C162.269 65.0135 163.124 63.9397 164.241 63.1586C165.357 62.3776 166.656 61.95 168.136 61.8758C169.617 61.8016 170.951 62.0973 172.14 62.7628C173.329 63.4283 174.288 64.4113 175.015 65.7116C175.743 67.012 176.153 68.5776 176.245 70.4084ZM174.211 70.5103C174.135 69.0073 173.82 67.7513 173.266 66.7425C172.717 65.7334 172.002 64.9846 171.122 64.4962C170.248 64.0075 169.286 63.7895 168.235 63.8422C167.184 63.8949 166.245 64.2081 165.418 64.782C164.597 65.3557 163.961 66.1721 163.51 67.2313C163.065 68.2903 162.88 69.5713 162.955 71.0743C163.03 72.5773 163.343 73.8334 163.892 74.8425C164.446 75.8514 165.161 76.6001 166.035 77.0888C166.915 77.5772 167.88 77.7951 168.931 77.7424C169.982 77.6897 170.918 77.3766 171.739 76.803C172.566 76.2291 173.202 75.4127 173.647 74.3537C174.098 73.2945 174.286 72.0133 174.211 70.5103Z" fill="#E4E4E4"/>
<path d="M193.124 62.705L195.215 62.9459L193.793 75.2883C193.666 76.3899 193.356 77.3023 192.862 78.0257C192.369 78.7491 191.731 79.2679 190.949 79.5821C190.166 79.8963 189.275 79.9958 188.275 79.8805C187.33 79.7717 186.51 79.5034 185.813 79.0758C185.117 78.6425 184.595 78.0812 184.247 77.3919C183.9 76.7026 183.777 75.9167 183.878 75.0343L185.935 75.2714C185.879 75.7603 185.951 76.2014 186.15 76.5946C186.356 76.9828 186.661 77.3027 187.065 77.5542C187.469 77.8058 187.943 77.9629 188.488 78.0258C189.09 78.0951 189.616 78.0275 190.066 77.8232C190.517 77.6188 190.88 77.2848 191.156 76.8211C191.438 76.3524 191.62 75.7611 191.702 75.0474L193.124 62.705Z" fill="#E4E4E4"/>
<path d="M201.067 81.296L205.656 64.5325L215.773 67.3016L215.28 69.1024L207.193 66.8889L205.642 72.5531L213.206 74.6232L212.713 76.424L205.149 74.3539L203.59 80.0509L211.808 82.3002L211.315 84.101L201.067 81.296Z" fill="#E4E4E4"/>
<path d="M236.601 81.4191L234.695 80.5272C234.838 79.9262 234.867 79.3522 234.779 78.8052C234.696 78.2607 234.521 77.754 234.253 77.2851C233.993 76.8136 233.656 76.3934 233.241 76.0245C232.826 75.6557 232.358 75.349 231.835 75.1044C230.882 74.6585 229.906 74.4954 228.907 74.6151C227.913 74.7372 226.968 75.1604 226.073 75.8848C225.184 76.6117 224.42 77.6566 223.782 79.0197C223.144 80.3829 222.832 81.6388 222.844 82.7876C222.861 83.9387 223.142 84.9349 223.685 85.7763C224.233 86.62 224.984 87.2648 225.937 87.7107C226.46 87.9553 226.996 88.1185 227.545 88.2003C228.093 88.2822 228.631 88.2745 229.158 88.1773C229.692 88.0773 230.194 87.8845 230.665 87.5989C231.143 87.3105 231.566 86.9211 231.933 86.4307L233.839 87.3225C233.319 88.0599 232.721 88.6577 232.045 89.1157C231.368 89.5737 230.644 89.8938 229.871 90.0759C229.102 90.2529 228.312 90.2925 227.502 90.1946C226.697 90.0992 225.897 89.8656 225.103 89.494C223.76 88.8659 222.72 87.9793 221.981 86.8343C221.243 85.6893 220.857 84.3719 220.823 82.882C220.789 81.3921 221.161 79.817 221.937 78.1567C222.714 76.4963 223.685 75.2017 224.851 74.2728C226.016 73.3439 227.275 72.7961 228.627 72.6292C229.979 72.4624 231.327 72.693 232.669 73.3211C233.464 73.6927 234.155 74.1568 234.744 74.7135C235.339 75.2725 235.813 75.9068 236.168 76.6164C236.526 77.3208 236.746 78.0794 236.827 78.8923C236.912 79.7 236.836 80.5423 236.601 81.4191Z" fill="#E4E4E4"/>
<path d="M246.25 82.4859L247.321 80.9562L258 88.4298L256.93 89.9594L252.452 86.826L243.558 99.5361L241.834 98.3294L250.728 85.6193L246.25 82.4859Z" fill="#E4E4E4"/>
<path d="M270.254 104.86C270.787 104.177 270.963 103.412 270.782 102.565C270.602 101.718 270.137 100.924 269.389 100.184C268.842 99.6431 268.276 99.2581 267.691 99.0292C267.109 98.8043 266.551 98.7332 266.015 98.8161C265.484 98.9029 265.023 99.1434 264.633 99.5376C264.307 99.8674 264.105 100.228 264.027 100.621C263.957 101.013 263.969 101.411 264.063 101.815C264.161 102.214 264.297 102.6 264.471 102.971C264.649 103.338 264.823 103.665 264.993 103.952L265.913 105.532C266.151 105.934 266.394 106.405 266.641 106.944C266.892 107.487 267.071 108.066 267.178 108.681C267.293 109.297 267.273 109.921 267.116 110.554C266.959 111.187 266.595 111.793 266.022 112.372C265.361 113.04 264.589 113.47 263.706 113.663C262.827 113.859 261.897 113.786 260.915 113.443C259.937 113.105 258.973 112.466 258.024 111.526C257.139 110.651 256.514 109.75 256.149 108.824C255.788 107.902 255.676 107.002 255.811 106.126C255.95 105.253 256.33 104.455 256.95 103.731L258.495 105.259C258.073 105.765 257.848 106.307 257.819 106.883C257.798 107.459 257.925 108.031 258.2 108.597C258.483 109.164 258.87 109.69 259.361 110.175C259.932 110.74 260.536 111.155 261.174 111.42C261.815 111.68 262.434 111.775 263.03 111.704C263.629 111.629 264.152 111.366 264.598 110.915C265.004 110.505 265.219 110.058 265.245 109.574C265.27 109.09 265.175 108.582 264.96 108.051C264.746 107.52 264.481 106.979 264.166 106.429L263.075 104.491C262.385 103.258 262.012 102.106 261.959 101.034C261.905 99.9622 262.29 99.01 263.114 98.1775C263.798 97.4857 264.582 97.0675 265.465 96.9228C266.357 96.778 267.261 96.8772 268.179 97.2203C269.105 97.5634 269.962 98.125 270.751 98.9049C271.547 99.6927 272.113 100.536 272.45 101.434C272.791 102.328 272.9 103.2 272.776 104.049C272.657 104.902 272.299 105.65 271.702 106.293L270.254 104.86Z" fill="#E4E4E4"/>
<path d="M49 166L50.7678 170.848L54 173.5L50.7678 176.152L49 181L47.2322 176.152L44 173.5L47.2322 170.848L49 166Z" fill="#D9D9D9"/>
<path d="M304 166L305.768 170.848L309 173.5L305.768 176.152L304 181L302.232 176.152L299 173.5L302.232 170.848L304 166Z" fill="#D9D9D9"/>
</svg>
